HIERARCHY
ROOT hips
{
	OFFSET -0.003675 0.299928 -0.021708
	CHANNELS 6 Xposition Yposition Zposition Xrotation Yrotation Zrotation
	JOINT LowerBack
	{
		OFFSET 0.000919 0.177588 0.009275
		CHANNELS 3 Xrotation Yrotation Zrotation
		JOINT spine
		{
			OFFSET 0.000919 0.177588 0.009275
			CHANNELS 3 Xrotation Yrotation Zrotation
			JOINT chest
			{
				OFFSET 0.000456 0.100015 0.004638
				CHANNELS 3 Xrotation Yrotation Zrotation
				JOINT neck
				{
					OFFSET 0.000456 0.100015 0.004638
					CHANNELS 3 Xrotation Yrotation Zrotation
					JOINT head
					{
						OFFSET 0.000924 0.155147 0.009274
						CHANNELS 6 Xposition Yposition Zposition Xrotation Yrotation Zrotation
						End Site
						{
							OFFSET 0.000000 0.153400 0.000000
						}
					}
				}
				JOINT shoulder.L
				{
					OFFSET 0.019937 0.078966 0.057518
					CHANNELS 6 Xposition Yposition Zposition Yrotation Xrotation Zrotation
					JOINT upper_arm.L
					{
						OFFSET 0.177024 -0.020465 -0.095062
						CHANNELS 6 Xposition Yposition Zposition Xrotation Yrotation Zrotation
						JOINT forearm.L
						{
							OFFSET 0.247100 -0.135500 -0.061800
							CHANNELS 3 Xrotation Yrotation Zrotation
							JOINT hand.L
							{
								OFFSET 0.217000 -0.143000 0.039300
								CHANNELS 3 Xrotation Yrotation Zrotation
								JOINT palm.01.L
								{
									OFFSET 0.021770 -0.038291 0.012954
									CHANNELS 6 Xposition Yposition Zposition Yrotation Xrotation Zrotation
									JOINT f_index.01.L
									{
										OFFSET 0.053215 -0.044137 0.008236
										CHANNELS 3 Xrotation Yrotation Zrotation
										JOINT f_index.02.L
										{
											OFFSET 0.036108 -0.024723 -0.010656
											CHANNELS 3 Xrotation Yrotation Zrotation
											JOINT f_index.03.L
											{
												OFFSET 0.021342 -0.014948 -0.010846
												CHANNELS 3 Xrotation Yrotation Zrotation
												End Site
												{
													OFFSET 0.015600 -0.009860 -0.013421
												}
											}
										}
									}
									JOINT thumb.01.L
									{
										OFFSET -0.009090 -0.002348 -0.024223
										CHANNELS 6 Xposition Yposition Zposition Xrotation Yrotation Zrotation
										JOINT thumb.02.L
										{
											OFFSET 0.019713 -0.035076 -0.011120
											CHANNELS 3 Xrotation Yrotation Zrotation
											JOINT thumb.03.L
											{
												OFFSET 0.024877 -0.021748 -0.005176
												CHANNELS 3 Xrotation Yrotation Zrotation
												End Site
												{
													OFFSET 0.016125 -0.013029 -0.001569
												}
											}
										}
									}
								}
								JOINT palm.02.L
								{
									OFFSET 0.032823 -0.025104 0.012281
									CHANNELS 6 Xposition Yposition Zposition Yrotation Xrotation Zrotation
									JOINT f_middle.01.L
									{
										OFFSET 0.055723 -0.038469 0.008037
										CHANNELS 3 Xrotation Yrotation Zrotation
										JOINT f_middle.02.L
										{
											OFFSET 0.038167 -0.027473 -0.015582
											CHANNELS 3 Xrotation Yrotation Zrotation
											JOINT f_middle.03.L
											{
												OFFSET 0.021707 -0.016587 -0.017037
												CHANNELS 3 Xrotation Yrotation Zrotation
												End Site
												{
													OFFSET 0.014112 -0.010584 -0.014294
												}
											}
										}
									}
								}
								JOINT palm.03.L
								{
									OFFSET 0.039230 -0.011402 0.008390
									CHANNELS 6 Xposition Yposition Zposition Yrotation Xrotation Zrotation
									JOINT f_ring.01.L
									{
										OFFSET 0.061796 -0.031470 0.007910
										CHANNELS 3 Xrotation Yrotation Zrotation
										JOINT f_ring.02.L
										{
											OFFSET 0.033092 -0.023401 -0.019127
											CHANNELS 3 Xrotation Yrotation Zrotation
											JOINT f_ring.03.L
											{
												OFFSET 0.021392 -0.015362 -0.017824
												CHANNELS 3 Xrotation Yrotation Zrotation
												End Site
												{
													OFFSET 0.008670 -0.007297 -0.014686
												}
											}
										}
									}
								}
								JOINT palm.04.L
								{
									OFFSET 0.043417 0.002450 0.002889
									CHANNELS 6 Xposition Yposition Zposition Yrotation Xrotation Zrotation
									JOINT f_pinky.01.L
									{
										OFFSET 0.069986 -0.026156 0.003627
										CHANNELS 3 Xrotation Yrotation Zrotation
										JOINT f_pinky.02.L
										{
											OFFSET 0.018520 -0.012813 -0.016429
											CHANNELS 3 Xrotation Yrotation Zrotation
											JOINT f_pinky.03.L
											{
												OFFSET 0.013822 -0.009796 -0.014947
												CHANNELS 3 Xrotation Yrotation Zrotation
												End Site
												{
													OFFSET 0.007238 -0.006103 -0.011657
												}
											}
										}
									}
								}
							}
						}
					}
				}
				JOINT shoulder.R
				{
					OFFSET -0.016662 0.078957 0.057696
					CHANNELS 6 Xposition Yposition Zposition Yrotation Xrotation Zrotation
					JOINT upper_arm.R
					{
						OFFSET -0.176972 -0.020537 -0.095144
						CHANNELS 6 Xposition Yposition Zposition Xrotation Yrotation Zrotation
						JOINT forearm.R
						{
							OFFSET -0.247100 -0.135500 -0.061800
							CHANNELS 3 Xrotation Yrotation Zrotation
							JOINT hand.R
							{
								OFFSET -0.217000 -0.143000 0.039300
								CHANNELS 3 Xrotation Yrotation Zrotation
								JOINT palm.01.R
								{
									OFFSET -0.021773 -0.038278 0.012988
									CHANNELS 6 Xposition Yposition Zposition Yrotation Xrotation Zrotation
									JOINT f_index.01.R
									{
										OFFSET -0.053212 -0.044139 0.008249
										CHANNELS 3 Xrotation Yrotation Zrotation
										JOINT f_index.02.R
										{
											OFFSET -0.036049 -0.024835 -0.010634
											CHANNELS 3 Xrotation Yrotation Zrotation
											JOINT f_index.03.R
											{
												OFFSET -0.021371 -0.014881 -0.010866
												CHANNELS 3 Xrotation Yrotation Zrotation
												End Site
												{
													OFFSET -0.015584 -0.009883 -0.013422
												}
											}
										}
									}
									JOINT thumb.01.R
									{
										OFFSET 0.009113 -0.002381 -0.024211
										CHANNELS 6 Xposition Yposition Zposition Xrotation Yrotation Zrotation
										JOINT thumb.02.R
										{
											OFFSET -0.019694 -0.035097 -0.011088
											CHANNELS 3 Xrotation Yrotation Zrotation
											JOINT thumb.03.R
											{
												OFFSET -0.024867 -0.021762 -0.005168
												CHANNELS 3 Xrotation Yrotation Zrotation
												End Site
												{
													OFFSET -0.016120 -0.013036 -0.001565
												}
											}
										}
									}
								}
								JOINT palm.02.R
								{
									OFFSET -0.032828 -0.025095 0.012286
									CHANNELS 6 Xposition Yposition Zposition Yrotation Xrotation Zrotation
									JOINT f_middle.01.R
									{
										OFFSET -0.055721 -0.038472 0.008040
										CHANNELS 3 Xrotation Yrotation Zrotation
										JOINT f_middle.02.R
										{
											OFFSET -0.038101 -0.027593 -0.015557
											CHANNELS 3 Xrotation Yrotation Zrotation
											JOINT f_middle.03.R
											{
												OFFSET -0.021730 -0.016530 -0.017054
												CHANNELS 3 Xrotation Yrotation Zrotation
												End Site
												{
													OFFSET -0.014096 -0.010608 -0.014293
												}
											}
										}
									}
								}
								JOINT palm.03.R
								{
									OFFSET -0.039192 -0.011488 0.008390
									CHANNELS 6 Xposition Yposition Zposition Yrotation Xrotation Zrotation
									JOINT f_ring.01.R
									{
										OFFSET -0.061839 -0.031387 0.007876
										CHANNELS 3 Xrotation Yrotation Zrotation
										JOINT f_ring.02.R
										{
											OFFSET -0.033068 -0.023437 -0.019125
											CHANNELS 3 Xrotation Yrotation Zrotation
											JOINT f_ring.03.R
											{
												OFFSET -0.021371 -0.015393 -0.017822
												CHANNELS 3 Xrotation Yrotation Zrotation
												End Site
												{
													OFFSET -0.008654 -0.007321 -0.014684
												}
											}
										}
									}
								}
								JOINT palm.04.R
								{
									OFFSET -0.043421 0.002443 0.002845
									CHANNELS 6 Xposition Yposition Zposition Yrotation Xrotation Zrotation
									JOINT f_pinky.01.R
									{
										OFFSET -0.069983 -0.026169 0.003599
										CHANNELS 3 Xrotation Yrotation Zrotation
										JOINT f_pinky.02.R
										{
											OFFSET -0.018501 -0.012842 -0.016428
											CHANNELS 3 Xrotation Yrotation Zrotation
											JOINT f_pinky.03.R
											{
												OFFSET -0.013806 -0.009821 -0.014946
												CHANNELS 3 Xrotation Yrotation Zrotation
												End Site
												{
													OFFSET -0.007226 -0.006121 -0.011655
												}
											}
										}
									}
								}
							}
						}
					}
				}
			}
		}
	}
	JOINT pelvis.L
	{
		OFFSET 0.000000 0.000000 0.000000
		CHANNELS 6 Xposition Yposition Zposition Xrotation Yrotation Zrotation
		JOINT thigh.L
		{
			OFFSET 0.101675 0.001054 -0.000000
			CHANNELS 3 Xrotation Yrotation Zrotation
			JOINT shin.L
			{
				OFFSET 0.000000 -0.534800 0.041000
				CHANNELS 3 Xrotation Yrotation Zrotation
				JOINT foot.L
				{
					OFFSET 0.000000 -0.452000 -0.044800
					CHANNELS 3 Xrotation Yrotation Zrotation
					JOINT toe.L
					{
						OFFSET -0.000000 -0.068500 0.109600
						CHANNELS 3 Xrotation Yrotation Zrotation
						End Site
						{
							OFFSET -0.000000 0.000000 0.067200
						}
					}
				}
				JOINT heel.L
				{
					OFFSET 0.000000 -0.452000 -0.044800
					CHANNELS 3 Xrotation Yrotation Zrotation
					JOINT heel.02.L
					{
						OFFSET -0.038000 -0.085200 0.016200
						CHANNELS 6 Xposition Yposition Zposition Xrotation Yrotation Zrotation
						End Site
						{
							OFFSET 0.080000 -0.000000 0.000000
						}
					}
				}
			}
		}
	}
	JOINT pelvis.R
	{
		OFFSET 0.000000 0.000000 0.000000
		CHANNELS 6 Xposition Yposition Zposition Xrotation Yrotation Zrotation
		JOINT thigh.R
		{
			OFFSET -0.094325 0.001054 0.000000
			CHANNELS 3 Xrotation Yrotation Zrotation
			JOINT shin.R
			{
				OFFSET 0.000000 -0.534800 0.041000
				CHANNELS 3 Xrotation Yrotation Zrotation
				JOINT foot.R
				{
					OFFSET 0.000000 -0.452000 -0.044800
					CHANNELS 3 Xrotation Yrotation Zrotation
					JOINT toe.R
					{
						OFFSET -0.000000 -0.068500 0.109600
						CHANNELS 3 Xrotation Yrotation Zrotation
						End Site
						{
							OFFSET -0.000000 0.000000 0.067200
						}
					}
				}
				JOINT heel.R
				{
					OFFSET 0.000000 -0.452000 -0.044800
					CHANNELS 3 Xrotation Yrotation Zrotation
					JOINT heel.02.R
					{
						OFFSET 0.038000 -0.085200 0.016200
						CHANNELS 6 Xposition Yposition Zposition Xrotation Yrotation Zrotation
						End Site
						{
							OFFSET -0.080000 0.000000 -0.000000
						}
					}
				}
			}
		}
	}
}
MOTION
Frames: 4
Frame Time: 0.041667
0.000206 0.213257 0.006523 33.240850 14.894614 96.284815 -0.000001 0.000001 -0.000000 -0.000001 -0.000001 0.000001 -0.000001 -0.000003 -0.000001 -0.000001 -0.000001 -0.000001 0.000924 0.155147 0.009274 -3.477053 0.014111 -3.972873 0.019937 0.078966 0.057518 -45.014491 13.910429 58.547166 0.177024 -0.020465 -0.095062 -60.209149 45.034760 -76.737435 -53.888656 -15.338863 -43.164767 0.000001 0.000001 -0.000001 0.021770 -0.038291 0.012954 0.000000 -0.000000 -0.000004 -0.000000 0.000000 -0.000000 -0.000000 0.000001 0.000007 -0.000000 0.000003 -0.000001 -0.009090 -0.002348 -0.024224 0.000003 0.000000 -0.000001 -0.000000 0.000001 -0.000000 0.000001 -0.000000 -0.000001 0.032823 -0.025104 0.012281 0.000001 -0.000003 0.000002 0.000002 0.000005 -0.000001 -0.000004 0.000002 -0.000000 -0.000001 0.000003 0.000001 0.039230 -0.011402 0.008390 0.000000 -0.000001 0.000004 -0.000001 -0.000002 0.000001 -0.000000 0.000003 0.000001 -0.000002 -0.000006 0.000003 0.043417 0.002450 0.002889 -0.000000 -0.000000 -0.000002 -0.000001 -0.000003 -0.000002 -0.000003 0.000004 -0.000000 -0.000001 -0.000001 0.000001 -0.016662 0.078956 0.057696 -37.163425 12.969782 -34.457888 -0.176972 -0.020537 -0.095144 -55.074179 -15.313422 56.854252 -55.414745 8.012035 51.875919 -0.000000 0.000003 0.000003 -0.021773 -0.038278 0.012988 -0.000002 -0.000003 -0.000002 0.000000 -0.000000 0.000000 0.000001 0.000001 -0.000008 0.000001 0.000000 -0.000000 0.009114 -0.002381 -0.024212 0.000000 -0.000003 0.000004 0.000000 -0.000002 0.000000 0.000002 -0.000001 -0.000001 -0.032828 -0.025095 0.012286 0.000001 -0.000002 -0.000001 0.000004 0.000001 0.000002 0.000001 0.000000 -0.000002 -0.000003 0.000002 -0.000003 -0.039192 -0.011488 0.008390 -0.000002 0.000000 0.000001 0.000003 0.000003 -0.000002 -0.000001 -0.000003 -0.000002 0.000001 -0.000003 -0.000002 -0.043421 0.002443 0.002845 -0.000001 -0.000001 0.000000 -0.000004 0.000001 0.000001 -0.000001 -0.000003 0.000000 0.000002 0.000003 -0.000002 0.000000 0.000000 -0.000000 -1.581615 1.080810 -14.264928 27.811598 -1.094029 -15.687194 13.390570 0.620925 -6.275464 -0.000002 -0.000000 -0.000001 -0.000000 0.000001 0.000002 -0.000002 0.000004 0.000001 -0.038000 -0.085200 0.016200 -0.000002 0.000003 -0.000001 0.000000 0.000000 0.000000 -1.512902 1.064105 -13.032021 24.494945 0.161830 3.424430 14.985152 2.319503 -24.120924 -0.000005 0.000002 -0.000001 -0.000002 0.000000 -0.000002 0.000002 0.000001 -0.000001 0.038000 -0.085200 0.016200 -0.000002 0.000000 -0.000000 
-0.004979 0.211609 0.000949 68.444574 17.432524 83.506330 -0.000001 0.000000 0.000000 0.000001 -0.000003 0.000001 0.000002 -0.000001 0.000000 0.000001 0.000001 -0.000001 0.000924 0.155147 0.009274 -7.794760 0.025882 6.659808 0.019937 0.078966 0.057518 -15.205721 6.699827 47.044253 0.177024 -0.020465 -0.095062 -52.097316 31.153551 -72.728319 -20.982814 -15.405956 -22.913089 0.000000 0.000001 -0.000001 0.021770 -0.038291 0.012954 -0.000001 0.000001 -0.000002 -0.000001 0.000000 -0.000000 0.000001 0.000001 0.000003 0.000002 0.000002 0.000002 -0.009090 -0.002348 -0.024223 -0.000000 0.000000 -0.000001 -0.000000 -0.000003 0.000001 -0.000000 0.000001 -0.000006 0.032823 -0.025104 0.012281 -0.000002 0.000002 0.000005 0.000000 0.000001 -0.000003 -0.000003 -0.000002 0.000003 -0.000002 0.000003 0.000001 0.039230 -0.011402 0.008390 -0.000002 -0.000000 0.000006 -0.000001 -0.000001 0.000001 -0.000003 0.000001 0.000001 -0.000002 -0.000004 0.000003 0.043417 0.002450 0.002889 -0.000004 0.000002 -0.000000 0.000001 -0.000003 0.000001 0.000001 0.000004 0.000000 0.000002 -0.000002 -0.000001 -0.016662 0.078957 0.057696 -8.388427 5.913879 -36.174024 -0.176972 -0.020537 -0.095144 -42.366284 -17.665921 61.317743 -45.442246 1.066303 62.470713 0.000002 0.000001 0.000004 -0.021773 -0.038278 0.012988 -0.000000 0.000002 0.000000 -0.000003 0.000002 -0.000001 -0.000002 -0.000000 -0.000003 -0.000001 -0.000001 0.000006 0.009113 -0.002381 -0.024212 -0.000001 -0.000005 0.000004 -0.000000 -0.000000 0.000000 0.000001 -0.000001 0.000001 -0.032828 -0.025095 0.012286 0.000000 0.000003 0.000001 0.000002 0.000004 0.000008 -0.000003 0.000000 -0.000002 -0.000006 0.000006 -0.000003 -0.039192 -0.011488 0.008390 0.000002 0.000006 0.000002 -0.000000 0.000002 -0.000003 0.000003 -0.000003 0.000003 -0.000004 0.000001 0.000002 -0.043421 0.002443 0.002845 0.000003 0.000005 0.000000 -0.000004 0.000006 -0.000001 0.000001 -0.000001 -0.000000 -0.000002 -0.000003 -0.000004 -0.000000 0.000000 0.000000 -1.698246 1.692143 -20.759213 11.005581 -1.417446 -19.216469 3.146631 0.742069 -7.506731 0.000000 0.000000 0.000003 0.000003 -0.000005 -0.000002 0.000000 -0.000000 0.000000 -0.038000 -0.085200 0.016200 -0.000002 -0.000002 -0.000001 -0.000000 0.000000 0.000000 -1.604341 1.657670 -19.527772 4.031879 0.155362 1.968459 9.373778 2.687384 -28.266202 -0.000003 -0.000001 -0.000000 0.000002 -0.000001 -0.000001 0.000007 -0.000002 0.000002 0.038000 -0.085200 0.016200 0.000004 -0.000001 -0.000003 
-0.005457 0.213503 0.000874 67.696539 19.350628 83.895719 0.000001 -0.000001 0.000001 0.000003 -0.000002 -0.000000 -0.000002 -0.000000 -0.000001 0.000003 -0.000000 0.000001 0.000924 0.155148 0.009274 -11.358103 0.036916 7.337618 0.019937 0.078966 0.057518 -12.001619 6.189841 44.489861 0.177025 -0.020466 -0.095062 -39.760399 25.900926 -76.416635 -22.022316 -15.719600 -24.244491 -0.000002 0.000003 0.000004 0.021770 -0.038291 0.012954 0.000002 -0.000000 -0.000004 -0.000004 -0.000000 -0.000002 -0.000003 0.000003 0.000005 0.000002 0.000005 -0.000002 -0.009090 -0.002348 -0.024223 -0.000003 0.000001 -0.000003 -0.000001 -0.000001 0.000001 -0.000001 0.000001 -0.000002 0.032823 -0.025104 0.012281 0.000005 0.000004 0.000007 0.000003 0.000005 -0.000008 -0.000001 -0.000001 0.000003 -0.000001 0.000002 0.000002 0.039230 -0.011402 0.008390 0.000003 -0.000001 0.000001 -0.000000 0.000002 -0.000000 -0.000004 -0.000003 -0.000001 0.000003 -0.000008 0.000003 0.043417 0.002450 0.002889 0.000003 0.000003 -0.000002 0.000001 -0.000005 -0.000000 -0.000000 0.000002 -0.000001 -0.000003 -0.000003 0.000001 -0.016662 0.078957 0.057696 -5.600543 5.927516 -37.576224 -0.176972 -0.020537 -0.095144 -36.669728 -17.430124 62.948922 -36.904434 5.233708 57.791276 0.000001 0.000002 0.000002 -0.021773 -0.038278 0.012988 -0.000003 -0.000001 -0.000003 -0.000006 0.000007 0.000001 -0.000000 0.000001 -0.000004 0.000003 -0.000000 -0.000003 0.009114 -0.002381 -0.024211 -0.000004 0.000001 0.000005 -0.000000 0.000001 0.000004 0.000001 0.000002 0.000003 -0.032828 -0.025095 0.012286 -0.000001 -0.000001 0.000002 0.000001 0.000002 -0.000001 0.000004 0.000000 -0.000000 -0.000003 0.000003 -0.000006 -0.039192 -0.011488 0.008390 0.000000 0.000001 0.000001 -0.000000 0.000006 -0.000002 0.000001 0.000002 -0.000000 -0.000000 0.000003 0.000001 -0.043421 0.002443 0.002844 0.000001 -0.000001 0.000002 -0.000002 0.000000 -0.000001 0.000001 -0.000006 0.000002 0.000001 0.000001 0.000001 0.000000 0.000000 0.000000 -1.679176 1.663228 -20.522922 6.831429 -1.584260 -21.282589 5.748510 0.672243 -6.796611 -0.000003 0.000002 0.000001 -0.000002 -0.000002 0.000002 0.000002 0.000002 0.000004 -0.038000 -0.085200 0.016200 0.000000 0.000003 0.000003 0.000000 0.000000 0.000000 -1.586960 1.629800 -19.291389 -1.456042 0.046845 0.159224 13.381258 2.395484 -24.964973 -0.000005 0.000001 -0.000002 -0.000002 -0.000005 0.000000 0.000002 0.000002 -0.000002 0.038000 -0.085200 0.016200 -0.000003 -0.000004 -0.000002 
-0.005154 0.212432 0.000790 68.643538 19.497357 83.599480 -0.000000 0.000003 -0.000002 -0.000001 0.000002 -0.000001 0.000001 0.000002 -0.000002 0.000004 0.000000 -0.000001 0.000924 0.155148 0.009274 -12.750535 0.042990 5.376616 0.019937 0.078966 0.057518 -12.615111 6.214821 44.645559 0.177024 -0.020466 -0.095062 -37.971474 24.741131 -75.777165 -25.251121 -19.669989 -20.242087 -0.000002 -0.000002 0.000003 0.021770 -0.038291 0.012954 -0.000002 -0.000002 -0.000002 -0.000001 -0.000001 0.000007 0.000003 0.000001 0.000007 -0.000004 -0.000002 -0.000001 -0.009090 -0.002348 -0.024223 -0.000001 -0.000003 0.000002 0.000001 0.000000 0.000001 -0.000001 -0.000003 -0.000004 0.032823 -0.025104 0.012281 0.000000 -0.000001 0.000007 -0.000003 -0.000002 -0.000007 -0.000003 -0.000005 0.000001 -0.000001 -0.000001 -0.000001 0.039230 -0.011402 0.008390 0.000000 0.000000 0.000008 0.000001 0.000006 -0.000000 -0.000000 0.000003 0.000001 -0.000003 -0.000006 0.000003 0.043417 0.002450 0.002889 -0.000001 -0.000000 -0.000002 -0.000003 -0.000000 -0.000004 -0.000001 -0.000001 -0.000001 -0.000000 0.000003 0.000000 -0.016662 0.078957 0.057696 -7.673626 6.178312 -37.432671 -0.176972 -0.020537 -0.095144 -35.627093 -18.398388 65.569632 -43.132949 3.814319 58.838227 0.000002 0.000007 0.000002 -0.021773 -0.038278 0.012988 0.000003 0.000000 -0.000003 -0.000002 0.000004 0.000001 -0.000002 0.000000 0.000001 -0.000004 -0.000000 -0.000003 0.009114 -0.002381 -0.024211 -0.000001 0.000004 0.000007 0.000000 -0.000008 -0.000003 -0.000001 0.000002 0.000003 -0.032828 -0.025095 0.012286 0.000002 -0.000000 -0.000001 0.000001 0.000008 -0.000004 0.000001 0.000000 0.000001 0.000000 0.000003 -0.000002 -0.039192 -0.011488 0.008390 0.000003 0.000002 -0.000002 0.000002 0.000004 0.000004 -0.000001 0.000002 -0.000000 0.000001 0.000002 -0.000003 -0.043421 0.002443 0.002845 0.000003 0.000001 -0.000003 -0.000005 0.000004 -0.000001 -0.000003 0.000001 0.000004 0.000001 0.000000 -0.000001 0.000000 0.000000 0.000000 -1.682673 1.583180 -19.639102 7.367897 -1.654525 -22.304121 0.312742 0.579360 -5.853608 -0.000002 0.000003 -0.000003 -0.000000 0.000002 0.000000 0.000002 0.000003 0.000000 -0.038000 -0.085200 0.016200 -0.000002 0.000001 -0.000002 -0.000000 0.000000 0.000000 -1.593228 1.552309 -18.407362 -1.825082 0.086977 0.659119 12.211856 2.488748 -26.009328 0.000000 0.000002 -0.000003 -0.000001 0.000000 0.000001 0.000003 -0.000002 -0.000002 0.038000 -0.085200 0.016200 0.000001 0.000000 -0.000002 
